<?xml version="1.0" standalone="no"?>
<!DOCTYPE svg PUBLIC "-//W3C//DTD SVG 20010904//EN"
 "http://www.w3.org/TR/2001/REC-SVG-20010904/DTD/svg10.dtd">
<svg version="1.0" xmlns="http://www.w3.org/2000/svg"
 width="500.000000pt" height="500.000000pt" viewBox="0 0 500.000000 500.000000"
 preserveAspectRatio="xMidYMid meet">
<metadata>
Created by potrace 1.11, written by Peter Selinger 2001-2013
</metadata>
<g transform="translate(0.000000,500.000000) scale(0.100000,-0.100000)"
fill="#000000" stroke="none">
<path d="M3716 4993 c-4 -5 -12 -9 -17 -9 -5 -1 -13 -2 -18 -3 -17 -2 -88 -76
-105 -109 -35 -67 -35 -102 -6 -307 11 -82 23 -168 26 -190 9 -67 14 -107 24
-180 15 -105 48 -353 55 -410 3 -27 10 -74 16 -104 5 -30 7 -56 4 -59 -2 -3
-66 56 -142 129 -80 78 -158 144 -185 158 -44 22 -63 27 -130 33 -16 1 -28 7
-29 13 0 5 -2 19 -4 30 -2 11 -7 49 -10 85 -4 36 -8 72 -10 80 -2 8 -7 49 -10
90 -4 41 -9 84 -11 95 -3 11 -7 50 -10 86 l-6 66 36 7 c140 26 227 162 191
299 -7 27 -19 53 -26 58 -8 5 -10 9 -5 9 22 0 -78 88 -107 94 -7 2 -19 6 -27
10 -25 10 -100 13 -160 4 -30 -4 -93 -10 -140 -13 -47 -3 -98 -8 -115 -10 -16
-2 -68 -6 -115 -10 -47 -4 -98 -8 -115 -9 -44 -5 -115 -28 -115 -38 0 -4 -6
-8 -12 -8 -22 0 -85 -79 -97 -119 -11 -37 -6 -164 7 -169 7 -2 10 -8 6 -13 -3
-5 0 -9 6 -9 6 0 8 -4 5 -10 -3 -5 -1 -10 4 -10 6 0 11 -7 11 -15 0 -8 3 -15
8 -15 4 0 19 -11 33 -24 35 -32 92 -50 166 -51 35 0 67 -5 72 -10 5 -6 12 -42
15 -81 4 -39 8 -80 10 -90 2 -11 7 -50 11 -88 4 -38 9 -79 10 -90 2 -12 7 -48
10 -80 3 -33 8 -63 11 -67 9 -16 -23 -23 -121 -28 -178 -8 -300 -6 -300 4 -1
24 -39 85 -68 112 -67 60 -97 66 -330 69 -116 1 -283 3 -369 4 -87 2 -158 3
-158 4 0 1 -4 27 -10 57 -22 125 -22 129 0 130 11 1 23 2 28 3 10 3 101 17
142 22 19 3 78 11 130 19 116 17 166 24 216 30 84 11 143 41 196 98 15 17 25
34 22 38 -3 5 -1 9 5 9 14 0 29 83 24 132 -7 57 -34 108 -79 147 -69 61 -136
74 -274 52 -36 -5 -85 -13 -110 -16 -25 -3 -52 -8 -60 -10 -8 -2 -37 -7 -65
-10 -27 -3 -75 -10 -105 -15 -30 -5 -75 -12 -100 -15 -90 -12 -208 -30 -275
-41 -42 -7 -115 -35 -115 -45 0 -4 -8 -10 -17 -13 -18 -6 -74 -87 -81 -116
-15 -70 -10 -154 23 -368 4 -23 3 -23 -18 -8 -104 75 -205 92 -325 54 -72 -23
-76 -24 -107 -32 -11 -2 -42 -12 -70 -21 -27 -10 -54 -19 -60 -20 -5 -1 -17
-5 -25 -8 -16 -6 -133 -40 -137 -39 -1 0 -31 -10 -65 -22 l-63 -21 -3 -2038
-2 -2037 1239 0 c682 0 1242 3 1244 8 3 4 8 25 11 47 12 73 11 73 69 69 169
-9 277 -16 310 -18 30 -2 47 -13 88 -54 l51 -52 864 0 c652 0 864 3 864 12 0
6 3 9 6 5 13 -13 105 45 146 93 24 27 43 53 43 57 1 5 7 19 15 33 16 28 18
191 7 475 -4 94 -9 280 -12 415 -3 135 -7 269 -10 298 -9 89 -64 174 -145 224
-60 36 -102 41 -342 42 -130 1 -239 4 -241 6 -3 3 -8 37 -11 75 -10 103 -14
150 -25 250 -6 50 -13 117 -16 150 -3 33 -8 75 -11 93 -4 26 -2 32 13 33 10 0
119 2 243 4 278 5 309 9 379 44 22 12 41 26 41 31 0 6 5 10 11 10 16 0 48 39
72 90 27 57 28 63 28 136 0 53 -11 87 -76 249 -42 103 -85 205 -96 226 -37 74
-128 144 -203 156 -17 3 -37 6 -45 7 -8 2 -35 -1 -60 -5 -70 -11 -139 -19
-216 -24 -38 -3 -95 -7 -126 -10 l-57 -5 -15 48 c-9 26 -19 55 -22 63 -4 12 5
19 35 28 22 6 40 16 40 21 0 6 7 10 16 10 8 0 13 4 9 9 -3 6 3 15 13 20 26 14
61 90 66 143 3 24 0 77 -5 118 -18 149 -20 165 -24 186 -2 12 -6 48 -10 80 -4
33 -9 68 -12 79 -5 21 51 -34 142 -141 62 -72 180 -208 254 -293 82 -94 101
-111 156 -137 58 -28 128 -31 180 -10 19 8 35 12 35 8 0 -3 7 4 16 16 8 12 20
20 25 17 5 -4 9 -2 9 3 0 4 9 18 21 30 20 22 20 31 16 285 -2 144 -7 273 -10
287 -3 14 -8 45 -11 70 -11 77 -17 124 -21 150 -2 14 -7 48 -10 75 -3 28 -8
66 -10 85 -3 19 -7 49 -9 65 -4 28 -24 185 -30 230 -2 11 -6 45 -10 75 -4 30
-9 66 -11 80 -2 14 -6 49 -10 78 l-7 52 -245 0 -245 0 6 -27 c5 -26 15 -95 21
-153 8 -65 17 -137 21 -160 3 -14 7 -50 10 -80 3 -30 8 -66 10 -80 10 -48 13
-100 6 -100 -4 0 -34 29 -68 65 -33 36 -59 65 -57 65 4 0 -50 62 -95 108 -18
19 -36 40 -40 47 -4 7 -33 41 -64 76 -68 77 -93 106 -123 141 -12 15 -48 43
-78 62 -50 32 -63 36 -125 36 -38 0 -72 -3 -76 -7z m-1996 -1383 c0 -3 -9 -34
-20 -68 -11 -35 -20 -75 -20 -88 0 -13 -6 -24 -13 -24 -7 0 -90 -29 -185 -65
-96 -36 -178 -65 -183 -65 -5 0 -7 26 -4 63 19 224 21 251 24 253 4 4 401 -2
401 -6z m781 -310 c2 -29 3 -31 28 -79 26 -50 32 -57 78 -89 31 -22 143 -66
143 -56 0 2 15 -2 33 -9 17 -8 38 -12 45 -10 20 7 14 -11 -9 -27 -24 -17 -89
-78 -89 -85 0 -2 -15 -30 -34 -62 -71 -124 -185 -350 -194 -388 -13 -47 -20
-109 -27 -225 -3 -47 -7 -110 -10 -140 -3 -30 -7 -100 -10 -155 -3 -55 -7
-120 -10 -145 -2 -25 -7 -88 -10 -140 -4 -52 -8 -115 -10 -140 -3 -40 -11
-160 -20 -305 -2 -27 -6 -86 -10 -130 -3 -44 -7 -101 -9 -128 -2 -26 -5 -49
-7 -52 -3 -2 -20 5 -39 17 -19 12 -37 22 -40 23 -3 0 -36 21 -75 45 -38 25
-83 52 -100 61 -17 9 -48 45 -73 85 -41 66 -42 71 -36 129 3 33 7 67 9 75 2 8
6 42 10 75 3 33 8 74 10 90 2 17 7 59 10 95 4 35 8 71 10 80 1 8 6 44 9 80 9
79 12 111 25 215 6 44 13 105 16 135 4 30 8 66 10 80 2 14 6 50 10 80 3 30 8
71 10 90 3 19 7 60 10 90 3 30 7 64 9 75 2 11 7 52 10 90 4 39 9 77 11 85 2 8
6 45 10 82 3 37 8 77 10 90 2 13 9 72 16 131 11 101 15 112 46 149 19 23 39
60 45 84 13 48 13 48 115 51 67 3 73 1 74 -17z m837 -156 c24 -17 22 -33 -6
-32 -9 0 -54 -3 -99 -6 -46 -4 -83 -3 -83 2 0 6 120 44 160 51 3 1 16 -6 28
-15z m-1721 -251 c-3 -5 -8 -36 -11 -69 -3 -34 -8 -77 -10 -95 -8 -57 -26
-214 -41 -354 -4 -33 -8 -71 -10 -85 -2 -14 -9 -70 -15 -125 -6 -55 -13 -111
-15 -125 -2 -14 -6 -50 -10 -80 -3 -30 -13 -109 -21 -175 -17 -145 -22 -183
-29 -258 -4 -32 -8 -66 -10 -75 -1 -9 -6 -51 -10 -92 -4 -41 -9 -84 -11 -95
-10 -46 -3 -163 12 -186 5 -9 -36 -19 -106 -24 -29 -3 -69 -7 -89 -10 -20 -2
-60 -7 -89 -10 l-53 -5 6 82 c3 46 8 106 10 133 5 56 12 134 20 245 4 41 8 91
10 110 2 19 6 69 10 110 3 41 8 98 10 125 3 28 7 82 10 120 4 39 8 93 11 120
2 28 6 77 9 110 6 88 15 195 20 235 3 19 7 67 10 105 4 61 10 129 19 228 1 15
3 41 4 58 2 26 5 30 20 23 20 -9 143 -14 157 -6 7 4 176 66 193 71 2 1 1 -2
-1 -6z m1934 -642 c3 0 6 -7 6 -13 0 -7 3 -35 6 -63 4 -27 9 -75 11 -105 9
-98 17 -174 22 -215 3 -22 7 -62 10 -90 2 -27 6 -66 8 -85 14 -134 21 -201 30
-298 3 -34 8 -79 10 -100 3 -20 8 -68 11 -107 4 -38 9 -83 11 -100 2 -16 6
-58 9 -92 5 -59 4 -62 -28 -90 -71 -60 -87 -73 -92 -73 -3 0 -13 -8 -23 -17
-10 -10 -33 -29 -52 -43 -18 -14 -49 -38 -69 -53 l-35 -28 -21 28 c-11 15 -28
36 -37 45 -10 10 -18 22 -18 26 0 5 -13 24 -30 42 -16 18 -30 36 -30 39 0 3
-13 20 -28 38 -15 18 -43 54 -62 80 -19 26 -38 50 -41 53 -13 10 -26 46 -23
60 2 8 10 42 18 76 8 34 17 72 20 85 3 13 22 94 42 179 20 85 40 171 44 190
18 84 83 362 100 431 21 80 23 90 35 156 6 32 12 43 29 45 19 3 152 2 167 -1z"/>
</g>
</svg>
